HIERARCHY
ROOT hip
{
	OFFSET 0.000000 0.000000 0.000000 
	CHANNELS 6 Xposition Yposition Zposition Xrotation Zrotation Yrotation
	JOINT abdomen
	{
		OFFSET 0.000000 3.402643 0.000000 
		CHANNELS 3 Xrotation Zrotation Yrotation
		JOINT chest
		{
			OFFSET 0.000000 8.438565 -0.680529 
			CHANNELS 3 Xrotation Zrotation Yrotation
			JOINT neck
			{
				OFFSET 0.000000 10.207942 -0.272212 
				CHANNELS 3 Xrotation Zrotation Yrotation
				JOINT head
				{
					OFFSET 0.000000 3.130431 0.000000 
					CHANNELS 3 Xrotation Zrotation Yrotation
					End Site
					{
						OFFSET 0.000000 3.130435 0.000000 
					}
				}
			}
			JOINT lCollar
			{
				OFFSET 3.470700 6.669187 -0.816635 
				CHANNELS 3 Yrotation Zrotation Xrotation
				JOINT lShldr
				{
					OFFSET 3.198488 0.000000 0.000000 
					CHANNELS 3 Zrotation Yrotation Xrotation
					JOINT lForeArm
					{
						OFFSET 10.139888 0.000000 0.000000 
						CHANNELS 3 Yrotation Zrotation Xrotation
						JOINT lHand
						{
							OFFSET 8.370511 0.000000 0.000000 
							CHANNELS 3 Zrotation Yrotation Xrotation
							End Site
							{
								OFFSET 4.083176 0.000000 0.000000 
							}
						}
					}
				}
			}
			JOINT rCollar
			{
				OFFSET -3.470700 6.669187 -0.816635 
				CHANNELS 3 Yrotation Zrotation Xrotation
				JOINT rShldr
				{
					OFFSET -3.198488 0.000000 0.000000 
					CHANNELS 3 Zrotation Yrotation Xrotation
					JOINT rForeArm
					{
						OFFSET -10.139888 0.000000 0.000000 
						CHANNELS 3 Yrotation Zrotation Xrotation
						JOINT rHand
						{
							OFFSET -8.370511 0.000000 0.000000 
							CHANNELS 3 Zrotation Yrotation Xrotation
							End Site
							{
								OFFSET -4.083176 0.000000 0.000000 
							}
						}
					}
				}
			}
		}
	}
	JOINT lThigh
	{
		OFFSET 5.308129 -1.633274 1.361059 
		CHANNELS 3 Xrotation Zrotation Yrotation
		JOINT lShin
		{
			OFFSET -2.041588 -20.007561 0.000000 
			CHANNELS 3 Xrotation Zrotation Yrotation
			JOINT lFoot
			{
				OFFSET 0.000000 -19.190928 -1.224953 
				CHANNELS 3 Xrotation Yrotation Zrotation
				End Site
				{
					OFFSET 0.000000 -2.449906 4.627600 
				}
			}
		}
	}
	JOINT rThigh
	{
		OFFSET -5.308129 -1.633274 1.361059 
		CHANNELS 3 Xrotation Zrotation Yrotation
		JOINT rShin
		{
			OFFSET 2.041588 -20.007561 0.000000 
			CHANNELS 3 Xrotation Zrotation Yrotation
			JOINT rFoot
			{
				OFFSET 0.000000 -19.190928 -1.224953 
				CHANNELS 3 Xrotation Yrotation Zrotation
				End Site
				{
					OFFSET 0.000000 -2.449906 4.627600 
				}
			}
		}
	}
}
MOTION
Frames: 10
Frame Time: 0.011111
11.852411 50.360386 -55.318340 -2.157826 2.248340 -2.576325 6.908207 -2.645356 3.249238 -4.386499 3.123816 1.116223 -16.291796 -7.738991 -0.222934 32.006271 12.671577 0.994347 12.413046 -14.960623 4.251975 -68.261475 -33.745647 9.679837 -46.417107 7.026683 5.800930 6.992188 16.005859 -65.319572 -6.427974 8.898234 2.089853 71.681900 40.080692 18.767523 59.052837 -9.728282 10.974456 -7.001954 -15.996095 63.017578 -9.948595 -1.747650 1.898892 30.407934 -5.278150 -2.234840 -13.909744 -11.812868 -3.722636 -11.479749 -6.784069 -2.612309 68.381729 3.808658 5.078883 -7.525675 -8.654121 -0.317559 
11.873366 50.308781 -54.804775 -2.207341 2.281818 -2.159764 7.035378 -2.657321 2.770692 -4.513411 3.262136 0.971728 -16.229027 -7.527552 -0.205476 31.951628 12.534990 1.060406 12.413046 -14.960623 4.251975 -68.415543 -34.815716 10.771970 -46.376324 7.018187 5.790689 6.992188 16.005859 -64.528557 -6.427974 8.898234 2.089853 71.718872 39.242901 18.176804 58.508949 -9.659147 10.748382 -7.001954 -15.996095 62.412109 -9.460213 -1.923334 1.753168 30.816639 -5.268201 -2.278412 -14.609428 -12.078500 -3.908115 -12.924549 -7.028093 -2.906224 68.577858 3.798882 5.089261 -9.116234 -7.537666 -0.419155 
11.897451 50.234344 -54.310284 -2.364643 2.556272 -1.767032 7.278650 -2.922491 2.334736 -4.600901 3.624020 0.846719 -16.158686 -7.971415 -0.103695 32.042198 13.000113 1.321672 12.413046 -14.960623 4.251975 -68.730530 -35.700203 12.330144 -46.675125 7.102717 5.895892 6.992188 16.005859 -63.327381 -6.427974 8.898234 2.089853 71.468170 38.517155 17.605896 58.029369 -9.594119 10.537988 -7.001954 -15.996095 62.011719 -8.726830 -2.411197 1.357612 31.098459 -5.243454 -2.312747 -15.271014 -12.062984 -4.024713 -14.314648 -7.498935 -3.179246 68.665970 3.798914 5.092515 -10.889197 -6.494136 -0.529362 
11.905582 50.175541 -53.807976 -2.424056 2.710448 -1.316841 7.423295 -3.022938 1.854490 -4.581127 3.769259 0.719908 -16.112442 -8.281356 -0.026251 32.243275 13.366922 1.528914 12.413046 -14.960623 4.251975 -69.106628 -36.963894 13.061916 -46.902248 7.168165 5.983595 6.992188 16.005859 -62.956291 -6.427974 8.898234 2.089853 71.354080 37.731201 17.295023 57.741600 -9.552632 10.415636 -7.001954 -15.996095 61.943359 -8.132679 -2.733658 0.979064 31.373838 -5.258613 -2.327975 -15.948724 -12.222133 -4.160108 -15.720675 -7.801584 -3.373587 68.646805 3.789171 5.104689 -12.789856 -5.643672 -0.631156 
11.908084 50.121746 -53.278774 -2.513349 3.164557 -0.949963 7.624736 -3.559264 1.336254 -4.728049 3.681826 0.574446 -16.030996 -7.896074 -0.040066 32.230286 13.262451 1.589977 12.413046 -14.960623 4.251975 -69.011436 -38.136967 14.157283 -47.243179 7.264704 6.116899 6.992188 16.005859 -62.096916 -6.427974 8.898234 2.089853 71.579857 36.888050 17.169691 57.315422 -9.488370 10.231006 -7.001954 -15.996095 61.914059 -7.423479 -3.326573 0.687700 31.632589 -5.252804 -2.347217 -16.514185 -12.412971 -4.331705 -17.132444 -8.404640 -3.387897 68.469521 3.817774 5.078495 -14.498242 -4.723574 -0.645530 
11.935608 50.006332 -52.744247 -2.760536 4.003671 -0.710604 7.875860 -4.584942 0.753632 -4.168816 4.427978 0.473937 -16.218126 -7.747374 0.018060 31.589045 12.632479 1.448634 12.413046 -14.960623 4.251975 -69.509117 -39.182594 16.255459 -48.227676 7.541637 6.502768 6.992188 16.005859 -60.251217 -6.427974 8.898234 2.089853 71.094398 36.741287 17.184042 56.805676 -9.412368 10.011220 -7.001954 -15.996095 61.884766 -6.412420 -4.401864 0.380139 31.849943 -5.258379 -2.367234 -17.168659 -12.423510 -4.422822 -18.484077 -9.559183 -3.421346 68.126503 3.828253 5.063105 -15.724255 -3.704489 -0.565980 
11.948745 49.918133 -52.225674 -2.732765 4.426251 -0.259316 8.022191 -4.998288 -0.020916 -4.354568 4.633830 0.253831 -16.510456 -7.602572 0.149523 31.848370 12.349151 1.654574 12.413046 -14.960623 4.251975 -69.523109 -39.809551 17.473259 -48.954880 7.736850 6.786260 6.992188 16.005859 -58.942619 -6.427974 8.898234 2.089853 71.030113 35.745346 17.023230 56.508343 -9.365451 9.892054 -7.001954 -15.996095 61.591797 -5.819340 -4.969967 0.152370 32.062023 -5.233294 -2.398511 -17.993294 -12.636343 -4.633624 -19.938318 -10.242270 -3.585801 67.537666 3.867202 5.027887 -16.503983 -2.997319 -0.478035 
11.937486 49.883099 -51.707729 -2.606056 4.627644 0.298612 8.146120 -5.179358 -0.765760 -5.059953 4.701996 0.009615 -16.618977 -7.565775 0.293798 32.527447 12.391598 2.008248 12.413046 -14.960623 4.251975 -69.374367 -40.383690 18.305653 -49.184227 7.799728 6.878758 6.992188 16.005859 -57.926991 -6.427974 8.898234 2.089853 71.100540 34.247818 16.619263 56.157619 -9.306369 9.741939 -7.001954 -15.996095 61.005856 -5.426010 -5.201628 0.014168 32.389076 -5.233933 -2.431210 -18.785645 -13.026604 -4.920100 -21.330050 -10.561801 -3.774365 66.713661 3.906278 4.974163 -17.186903 -2.472639 -0.418823 
11.929978 49.807728 -51.187592 -2.773077 4.776347 0.512751 8.351007 -5.398836 -0.989926 -4.667698 4.955188 -0.018406 -16.919647 -7.647814 0.340221 32.558964 12.495284 2.066977 12.413046 -14.960623 4.251975 -69.599457 -41.896152 19.924974 -49.424450 7.866455 6.970796 6.992188 16.005859 -56.589104 -6.427974 8.898234 2.089853 70.991409 33.756283 16.252531 55.913776 -9.265948 9.635014 -7.001954 -15.996095 60.615238 -4.784851 -5.370821 0.042286 32.816589 -5.223871 -2.465634 -19.431660 -13.354127 -5.158319 -22.333393 -10.683247 -3.706877 65.663895 3.955034 4.907579 -17.813969 -2.047623 -0.333849 
11.914653 49.720150 -50.665573 -2.948251 4.511829 0.648628 8.709613 -5.054968 -0.978355 -4.844383 4.701100 -0.041128 -17.012152 -7.474665 0.287872 32.667507 12.656304 2.029975 12.413046 -14.960623 4.251975 -69.365891 -43.125309 21.402241 -49.642246 7.916260 7.056899 6.992188 16.005859 -55.553944 -6.427974 8.898234 2.089853 71.099655 32.697483 15.943178 55.860371 -9.255326 9.614765 -7.001954 -15.996095 60.468750 -4.207885 -5.067198 -0.040294 33.134960 -5.213663 -2.485887 -19.881889 -13.621073 -5.339114 -23.113432 -10.292011 -3.660231 64.377312 4.042981 4.826726 -18.355347 -2.000469 -0.417900 
